<svg width="24" height="24" viewBox="0 0 24 24" fill="none" xmlns="http://www.w3.org/2000/svg">
<path d="M12.0002 16.5C14.4855 16.5 16.5002 14.4853 16.5002 12C16.5002 9.51472 14.4855 7.5 12.0002 7.5C9.5149 7.5 7.50018 9.51472 7.50018 12C7.50018 14.4853 9.5149 16.5 12.0002 16.5Z" stroke="#202A3C" stroke-width="1.5" stroke-linecap="round" stroke-linejoin="round"/>
<path d="M11.5194 4.13944L9.75042 2.81308C9.6555 2.74168 9.54498 2.69385 9.42795 2.67355C9.31093 2.65325 9.19076 2.66104 9.07734 2.6963C8.52946 2.86787 7.99791 3.08779 7.48897 3.35348C7.38361 3.40874 7.29291 3.48826 7.22435 3.58549C7.15578 3.68271 7.11133 3.79485 7.09464 3.91264L6.78192 6.10179C6.66271 6.20745 6.54601 6.31735 6.43181 6.43148C6.31765 6.54565 6.20772 6.66238 6.10203 6.78168L6.10198 6.78172L3.91322 7.09472C3.79562 7.11134 3.68365 7.15568 3.58655 7.22407C3.48944 7.29246 3.40998 7.38295 3.35471 7.48808C3.08862 7.99681 2.86826 8.52818 2.69626 9.07592C2.66083 9.18949 2.65293 9.30986 2.6732 9.42709C2.69346 9.54432 2.74132 9.65505 2.81281 9.75014L4.13964 11.5192C4.13007 11.6782 4.12526 11.8385 4.12521 11.9999C4.12521 12.1614 4.13002 12.3216 4.13965 12.4807L4.13964 12.4808L2.81328 14.2498C2.74188 14.3447 2.69406 14.4552 2.67375 14.5723C2.65345 14.6893 2.66125 14.8095 2.6965 14.9229C2.86807 15.4708 3.088 16.0023 3.35368 16.5113C3.40894 16.6166 3.48846 16.7073 3.58569 16.7759C3.68291 16.8444 3.79505 16.8889 3.91284 16.9056L6.10199 17.2183C6.20765 17.3375 6.31755 17.4542 6.43168 17.5684C6.54585 17.6826 6.66258 17.7925 6.78188 17.8982L6.78192 17.8982L7.09492 20.087C7.11155 20.2046 7.15588 20.3166 7.22427 20.4137C7.29267 20.5108 7.38316 20.5902 7.48829 20.6455C7.99701 20.9116 8.52838 21.132 9.07612 21.304C9.1897 21.3394 9.31006 21.3473 9.42729 21.327C9.54452 21.3068 9.65525 21.2589 9.75034 21.1874L11.5194 19.8606C11.6784 19.8702 11.8387 19.875 12.0001 19.875C12.1616 19.875 12.3218 19.8702 12.4809 19.8606L12.481 19.8606L14.25 21.187C14.3449 21.2584 14.4555 21.3062 14.5725 21.3265C14.6895 21.3468 14.8097 21.339 14.9231 21.3037C15.471 21.1322 16.0025 20.9122 16.5115 20.6466C16.6168 20.5913 16.7075 20.5118 16.7761 20.4145C16.8446 20.3173 16.8891 20.2052 16.9058 20.0874L17.2185 17.8982C17.3377 17.7926 17.4544 17.6827 17.5686 17.5685C17.6828 17.4544 17.7927 17.3377 17.8984 17.2184L17.8984 17.2183L20.0872 16.9053C20.2048 16.8887 20.3168 16.8443 20.4139 16.776C20.511 16.7076 20.5904 16.6171 20.6457 16.5119C20.9118 16.0032 21.1322 15.4719 21.3042 14.9241C21.3396 14.8105 21.3475 14.6902 21.3272 14.5729C21.307 14.4557 21.2591 14.345 21.1876 14.2499L19.8608 12.4808C19.8704 12.3218 19.8752 12.1616 19.8752 12.0001C19.8752 11.8387 19.8704 11.6784 19.8608 11.5193L19.8608 11.5192L21.1871 9.75022C21.2585 9.6553 21.3064 9.54478 21.3267 9.42775C21.347 9.31073 21.3392 9.19055 21.3039 9.07714C21.1324 8.52926 20.9124 7.99771 20.6467 7.48877C20.5915 7.38341 20.512 7.29271 20.4147 7.22415C20.3175 7.15558 20.2054 7.11113 20.0876 7.09444L17.8984 6.78172C17.7928 6.66251 17.6829 6.54581 17.5687 6.43161C17.4546 6.31745 17.3378 6.20752 17.2185 6.10183L17.2185 6.10179L16.9055 3.91302C16.8889 3.79542 16.8445 3.68345 16.7762 3.58635C16.7078 3.48924 16.6173 3.40978 16.5121 3.35451C16.0034 3.08842 15.472 2.86807 14.9243 2.69606C14.8107 2.66064 14.6904 2.65273 14.5731 2.673C14.4559 2.69326 14.3452 2.74112 14.2501 2.81261L12.481 4.13944C12.322 4.12987 12.1618 4.12506 12.0003 4.12501C11.8389 4.12501 11.6786 4.12983 11.5195 4.13945L11.5194 4.13944Z" stroke="#202A3C" stroke-width="1.5" stroke-linecap="round" stroke-linejoin="round"/>
</svg>
