<svg width="22" height="22" viewBox="0 0 22 22" fill="none" xmlns="http://www.w3.org/2000/svg">
<path d="M7.56251 11.5906L15.2898 18.3906C15.3792 18.4693 15.4875 18.5234 15.6041 18.5476C15.7207 18.5718 15.8416 18.5653 15.9549 18.5288C16.0683 18.4922 16.1702 18.4269 16.2507 18.3391C16.3312 18.2513 16.3875 18.1441 16.4141 18.028L19.6465 3.92289C19.6745 3.80093 19.6686 3.67367 19.6296 3.5548C19.5905 3.43593 19.5198 3.32997 19.425 3.24833C19.3302 3.1667 19.2149 3.11248 19.0915 3.09153C18.9682 3.07057 18.8414 3.08368 18.725 3.12943L2.86464 9.36028C2.72642 9.41458 2.60949 9.51219 2.53136 9.63848C2.45323 9.76478 2.4181 9.91298 2.43122 10.0609C2.44434 10.2088 2.50501 10.3485 2.60415 10.4591C2.70329 10.5697 2.83557 10.6452 2.9812 10.6743L7.56251 11.5906Z" fill="white" stroke="white" stroke-width="2" stroke-linecap="round" stroke-linejoin="round"/>
<path d="M7.5625 11.5906L19.2596 3.14267" stroke="#D9DADC" stroke-width="2" stroke-linecap="round" stroke-linejoin="round"/>
<path d="M11.4217 14.9867L8.73614 17.6722C8.63999 17.7684 8.51749 17.8339 8.38413 17.8604C8.25076 17.8869 8.11253 17.8733 7.98691 17.8213C7.86128 17.7692 7.75391 17.6811 7.67837 17.5681C7.60282 17.455 7.5625 17.3221 7.5625 17.1861V11.5906" fill="white"/>
<path d="M11.4217 14.9867L8.73614 17.6722C8.63999 17.7684 8.51749 17.8339 8.38413 17.8604C8.25076 17.8869 8.11253 17.8733 7.98691 17.8213C7.86128 17.7692 7.75391 17.6811 7.67837 17.5681C7.60282 17.455 7.5625 17.3221 7.5625 17.1861V11.5906" stroke="#D9DADC" stroke-width="2" stroke-linecap="round" stroke-linejoin="round"/>
</svg>
