<svg width="22" height="22" viewBox="0 0 22 22" fill="none" xmlns="http://www.w3.org/2000/svg">
<path d="M3.90404 15.2108C2.87903 13.4829 2.52006 11.4402 2.89454 9.46633C3.26902 7.49248 4.35119 5.72322 5.93783 4.49079C7.52448 3.25836 9.50646 2.64753 11.5116 2.77301C13.5167 2.89848 15.4071 3.75163 16.8277 5.17225C18.2484 6.59287 19.1015 8.48323 19.227 10.4884C19.3525 12.4935 18.7417 14.4755 17.5093 16.0621C16.2768 17.6488 14.5076 18.731 12.5337 19.1055C10.5599 19.48 8.5172 19.121 6.78928 18.096L6.7893 18.0959L3.93991 18.91C3.82202 18.9437 3.69727 18.9453 3.57858 18.9145C3.4599 18.8837 3.35159 18.8218 3.2649 18.7351C3.1782 18.6484 3.11627 18.5401 3.08551 18.4214C3.05476 18.3027 3.0563 18.178 3.08999 18.0601L3.9041 15.2107L3.90404 15.2108Z" fill="#9B51E0" stroke="white" stroke-width="2" stroke-linecap="round" stroke-linejoin="round"/>
<path d="M13.0723 15.8125C12.1678 15.8138 11.2719 15.6366 10.4361 15.291C9.60019 14.9455 8.84071 14.4384 8.20114 13.7989C7.56158 13.1593 7.0545 12.3998 6.70896 11.5639C6.36342 10.7281 6.18622 9.83221 6.18751 8.92773C6.18955 8.29108 6.44404 7.68124 6.89513 7.23197C7.34623 6.78271 7.9571 6.53071 8.59375 6.53125V6.53125C8.69817 6.53125 8.80074 6.55886 8.89106 6.61127C8.98138 6.66368 9.05624 6.73904 9.10804 6.82971L10.1127 8.58793C10.1733 8.69396 10.2046 8.81422 10.2033 8.93634C10.202 9.05845 10.1682 9.17802 10.1054 9.28274L9.29848 10.6275C9.7136 11.5488 10.4512 12.2864 11.3725 12.7015V12.7015L12.7173 11.8947C12.822 11.8318 12.9415 11.798 13.0637 11.7967C13.1858 11.7954 13.306 11.8267 13.4121 11.8873L15.1703 12.892C15.261 12.9438 15.3363 13.0186 15.3887 13.1089C15.4411 13.1993 15.4687 13.3018 15.4687 13.4062V13.4062C15.4669 14.0422 15.2142 14.6517 14.7654 15.1023C14.3167 15.5528 13.7082 15.8081 13.0723 15.8125V15.8125Z" stroke="white" stroke-width="2" stroke-linecap="round" stroke-linejoin="round"/>
</svg>
